<svg width="20" height="18" viewBox="0 0 20 18" fill="none" xmlns="http://www.w3.org/2000/svg">
<path d="M4.93945 2.001C4.93919 2.53143 4.72822 3.04004 4.35296 3.41492C3.9777 3.78981 3.46889 4.00027 2.93845 4C2.40802 3.99974 1.89942 3.78877 1.52453 3.41351C1.14965 3.03825 0.939188 2.52943 0.939453 1.999C0.939719 1.46857 1.15069 0.959965 1.52595 0.585079C1.90121 0.210194 2.41002 -0.000264966 2.94045 2.50361e-07C3.47089 0.000265467 3.97949 0.211233 4.35437 0.586494C4.72926 0.961754 4.93972 1.47057 4.93945 2.001ZM4.99945 5.481H0.999453V18.001H4.99945V5.481ZM11.3195 5.481H7.33945V18.001H11.2795V11.431C11.2795 7.771 16.0495 7.431 16.0495 11.431V18.001H19.9995V10.071C19.9995 3.901 12.9395 4.131 11.2795 7.161L11.3195 5.481Z" fill="black"/>
</svg>
