<svg width="221" height="52" viewBox="0 0 221 52" fill="none" xmlns="http://www.w3.org/2000/svg">
<path d="M47.0679 34.2652L47.0679 17.6973L61 25.9812L61 42.5491L47.0679 34.2652Z" fill="white"/>
<path d="M45.5619 35.0185L45.5619 17.6975L14.3088 35.7716L14.3088 2.00803e-06L0.000175822 7.90741L0.000177369 43.3025L15.0619 51.9629L30.5002 42.9259L45.9384 51.9629L60.2471 43.679L45.5619 35.0185Z" fill="white"/>
<path d="M30.123 25.2284L30.123 7.90741L15.8144 6.2545e-07L15.8144 33.5123L30.123 25.2284Z" fill="white"/>
<path d="M93.2 39V10.4H99V34.16H112.44V39H93.2ZM132.153 36.52C130.153 38.5733 127.58 39.6 124.433 39.6C121.286 39.6 118.713 38.5733 116.713 36.52C114.713 34.44 113.713 31.8533 113.713 28.76C113.713 25.6667 114.713 23.0933 116.713 21.04C118.713 18.96 121.286 17.92 124.433 17.92C127.58 17.92 130.153 18.96 132.153 21.04C134.153 23.0933 135.153 25.6667 135.153 28.76C135.153 31.8533 134.153 34.44 132.153 36.52ZM124.433 35.44C126.06 35.44 127.326 34.84 128.233 33.64C129.166 32.4133 129.633 30.7867 129.633 28.76C129.633 26.7333 129.166 25.1067 128.233 23.88C127.326 22.6533 126.06 22.04 124.433 22.04C122.78 22.04 121.5 22.6533 120.593 23.88C119.686 25.08 119.233 26.7067 119.233 28.76C119.233 30.7867 119.686 32.4133 120.593 33.64C121.5 34.84 122.78 35.44 124.433 35.44ZM137.536 45.72V41.44H139.456C141.483 41.44 142.496 40.5067 142.496 38.64C142.496 37.7333 141.976 35.88 140.936 33.08L135.416 18.48H141.136L144.176 27.72L145.496 32.2H145.576C145.949 30.4667 146.349 28.9733 146.776 27.72L149.656 18.48H155.136L147.976 39.52C147.176 41.8667 146.269 43.48 145.256 44.36C144.269 45.2667 142.763 45.72 140.736 45.72H137.536ZM168.419 39.6C165.645 39.6 163.605 38.5467 162.299 36.44H162.219V39H156.979V10.4H162.419V20.96H162.539C163.845 18.9333 165.752 17.92 168.259 17.92C170.845 17.92 172.965 18.9333 174.619 20.96C176.272 22.96 177.099 25.56 177.099 28.76C177.099 32.0667 176.299 34.7067 174.699 36.68C173.099 38.6267 171.005 39.6 168.419 39.6ZM167.219 35.04C168.605 35.04 169.672 34.4933 170.419 33.4C171.192 32.3067 171.579 30.76 171.579 28.76C171.579 26.7867 171.179 25.2267 170.379 24.08C169.605 22.9067 168.485 22.32 167.019 22.32C163.872 22.32 162.299 24.5067 162.299 28.88C162.299 30.7733 162.739 32.28 163.619 33.4C164.499 34.4933 165.699 35.04 167.219 35.04ZM197.075 36.52C195.075 38.5733 192.502 39.6 189.355 39.6C186.208 39.6 183.635 38.5733 181.635 36.52C179.635 34.44 178.635 31.8533 178.635 28.76C178.635 25.6667 179.635 23.0933 181.635 21.04C183.635 18.96 186.208 17.92 189.355 17.92C192.502 17.92 195.075 18.96 197.075 21.04C199.075 23.0933 200.075 25.6667 200.075 28.76C200.075 31.8533 199.075 34.44 197.075 36.52ZM189.355 35.44C190.982 35.44 192.248 34.84 193.155 33.64C194.088 32.4133 194.555 30.7867 194.555 28.76C194.555 26.7333 194.088 25.1067 193.155 23.88C192.248 22.6533 190.982 22.04 189.355 22.04C187.702 22.04 186.422 22.6533 185.515 23.88C184.608 25.08 184.155 26.7067 184.155 28.76C184.155 30.7867 184.608 32.4133 185.515 33.64C186.422 34.84 187.702 35.44 189.355 35.44ZM199.562 39L207.042 28.12L200.362 18.48H206.562L210.202 24.36H210.282L213.722 18.48H219.362L213.002 28.08L220.322 39H213.842L210.042 32.2H209.962L205.522 39H199.562Z" fill="white"/>
</svg>
