<svg width="1920" height="227" viewBox="0 0 1920 227" fill="none" xmlns="http://www.w3.org/2000/svg">
<g clip-path="url(#clip0_2193_6242)">
<path d="M1529.36 283.933L1543.7 259.097L1483.92 259.14L1513.53 207.847L1486.47 207.339L1457.17 258.093L1471.6 282.98L1501.21 282.803L1515.87 308.542L1543.25 308.509L1529.36 283.933Z" fill="white"/>
<path d="M1515.33 257.115L1529.67 232.278L1515.7 209.094L1487.95 257.147L1515.33 257.115Z" fill="white"/>
<path d="M1835.14 180.1L1848.86 156.343L1861.98 179.756L1848.26 203.513L1835.14 180.1Z" fill="white"/>
<path d="M1832.36 179.933L1846.7 155.097L1786.92 155.14L1816.53 103.847L1789.47 103.339L1760.17 154.093L1771.5 179.001L1804.21 178.803L1818.87 204.542L1846.25 204.509L1832.36 179.933Z" fill="white"/>
<path d="M1818.33 153.115L1832.67 128.278L1818.7 105.094L1790.95 153.147L1818.33 153.115Z" fill="white"/>
<path d="M1711.34 180.1L1697.63 156.343L1684.51 179.756L1698.22 203.513L1711.34 180.1Z" fill="white"/>
<path d="M1714.13 179.933L1699.79 155.097L1759.57 155.14L1729.95 103.847L1757.02 103.339L1786.32 154.093L1771.89 178.98L1742.27 178.803L1727.62 204.542L1700.24 204.509L1714.13 179.933Z" fill="white"/>
<path d="M1728.16 153.115L1713.82 128.278L1727.79 105.094L1755.53 153.147L1728.16 153.115Z" fill="white"/>
<path d="M1850.13 256.933L1835.79 232.097L1895.57 232.14L1865.95 180.847L1893.02 180.339L1922.32 231.093L1907.89 255.98L1878.27 255.803L1863.62 281.542L1836.24 281.509L1850.13 256.933Z" fill="white"/>
<path d="M1864.16 230.115L1849.82 205.278L1863.79 182.094L1891.53 230.147L1864.16 230.115Z" fill="white"/>
<path d="M1788.43 256.439L1759.75 256.439L1789.68 204.692L1730.45 204.692L1743.54 181L1802.15 181L1816.49 205.939L1801.53 231.5L1816.49 257.062L1802.77 280.753L1788.43 256.439Z" fill="white"/>
<path d="M1772.22 230.877L1743.54 230.877L1730.45 207.186L1785.94 207.186L1772.22 230.877Z" fill="white"/>
<path d="M1713.65 282.439L1683.65 282.439L1714.96 230.692L1653 230.692L1666.7 207L1728 207L1741.93 232L1727.35 257.5L1743 283.062L1728.65 306.753L1713.65 282.439Z" fill="white"/>
<path d="M1638.14 206.1L1651.86 182.343L1664.98 205.755L1651.26 229.512L1638.14 206.1Z" fill="white"/>
<path d="M1635.36 205.933L1649.7 181.096L1589.92 181.139L1620.04 129.339L1593 129L1563 180.5L1577.6 204.98L1607.21 204.802L1621.87 230.541L1649.25 230.509L1635.36 205.933Z" fill="white"/>
<path d="M1621.33 179.114L1635.88 153.777L1622.5 130.001L1593.95 179.147L1621.33 179.114Z" fill="white"/>
<path d="M1938.36 101.933L1952.7 77.0967L1892.92 77.1399L1922.53 25.8466L1895.47 25.3394L1866.17 76.0928L1880.6 100.98L1910.21 100.803L1924.87 126.542L1952.25 126.509L1938.36 101.933Z" fill="white"/>
<path d="M1924.33 75.1147L1938.67 50.278L1924.7 27.0938L1896.95 75.1475L1924.33 75.1147Z" fill="white"/>
<path d="M1544.4 205.945L1530.69 229.702L1517.06 207.035L1531.28 182.533L1544.4 205.945Z" fill="white"/>
<path d="M1547.19 206.112L1532.85 230.949L1592.62 230.906L1563.01 282.199L1590.07 282.706L1619.38 231.953L1604.95 207.066L1575.33 207.243L1560.67 181.504L1533.3 181.537L1547.19 206.112Z" fill="white"/>
<path d="M1561.22 232.931L1547.5 258L1561 281.5L1588.59 232.899L1561.22 232.931Z" fill="white"/>
<path d="M1847.41 101.945L1833.69 125.702L1820.06 103.035L1834.29 78.5328L1847.41 101.945Z" fill="white"/>
<path d="M1850.19 102.112L1835.85 126.949L1895.63 126.906L1866.01 178.199L1893.08 178.706L1922.38 127.953L1907.95 103.066L1878.33 103.243L1863.68 77.5039L1836.3 77.5367L1850.19 102.112Z" fill="white"/>
<path d="M1864.22 128.931L1850.5 154L1864 177.5L1891.6 128.899L1864.22 128.931Z" fill="white"/>
<path d="M1699.08 101.945L1712.8 125.702L1726.43 103.035L1712.2 78.5328L1699.08 101.945Z" fill="white"/>
<path d="M1696.3 102.112L1710.64 126.949L1650.86 126.906L1680.48 178.199L1653.41 178.706L1624.11 127.953L1638.54 103.066L1668.16 103.243L1682.81 77.5039L1710.19 77.5367L1696.3 102.112Z" fill="white"/>
<path d="M1682.27 128.931L1695.99 154L1682.49 177.5L1654.89 128.899L1682.27 128.931Z" fill="white"/>
<path d="M364.128 288.932L349.789 264.096L409.566 264.139L379.951 212.846L407.015 212.338L436.318 263.092L421.89 287.979L392.272 287.802L377.616 313.541L350.241 313.508L364.128 288.932Z" fill="white"/>
<path d="M378.16 262.114L363.821 237.277L377.792 214.093L405.536 262.147L378.16 262.114Z" fill="white"/>
<path d="M58.3448 185.099L44.6287 161.343L31.5094 184.755L45.2254 208.512L58.3448 185.099Z" fill="white"/>
<path d="M61.1281 184.932L46.7886 160.096L106.566 160.139L76.9515 108.846L104.015 108.338L133.318 159.092L121.987 184L89.2715 183.802L74.6159 209.541L47.2406 209.508L61.1281 184.932Z" fill="white"/>
<path d="M75.1602 158.114L60.8207 133.277L74.7917 110.093L102.536 158.147L75.1602 158.114Z" fill="white"/>
<path d="M182.143 185.099L195.859 161.343L208.978 184.755L195.262 208.512L182.143 185.099Z" fill="white"/>
<path d="M179.359 184.932L193.699 160.096L133.922 160.139L163.536 108.846L136.472 108.338L107.17 159.092L121.597 183.979L151.216 183.802L165.871 209.541L193.247 209.508L179.359 184.932Z" fill="white"/>
<path d="M165.327 158.114L179.667 133.277L165.696 110.093L137.952 158.147L165.327 158.114Z" fill="white"/>
<path d="M43.3583 261.932L57.6978 237.096L-2.07932 237.139L27.5349 185.846L0.471266 185.338L-28.8312 236.092L-14.4038 260.979L15.2148 260.802L29.8704 286.541L57.2458 286.508L43.3583 261.932Z" fill="white"/>
<path d="M29.3261 235.114L43.6656 210.277L29.6946 187.093L1.95077 235.147L29.3261 235.114Z" fill="white"/>
<path d="M105.056 261.438L133.735 261.438L103.809 209.691L163.037 209.691L149.945 186L91.3396 186L77.0001 210.938L91.9631 236.5L77.0001 262.062L90.7161 285.753L105.056 261.438Z" fill="white"/>
<path d="M121.266 235.876L149.945 235.876L163.037 212.185L107.549 212.185L121.266 235.876Z" fill="white"/>
<path d="M179.835 287.438L209.835 287.438L178.531 235.691L240.487 235.691L226.792 212L165.487 212L151.56 237L166.139 262.5L150.487 288.062L164.835 311.753L179.835 287.438Z" fill="white"/>
<path d="M255.345 211.099L241.629 187.343L228.509 210.755L242.225 234.512L255.345 211.099Z" fill="white"/>
<path d="M258.128 210.932L243.788 186.096L303.565 186.139L273.444 134.338L300.487 134L330.487 185.5L315.89 209.979L286.271 209.802L271.616 235.541L244.24 235.508L258.128 210.932Z" fill="white"/>
<path d="M272.161 184.114L257.609 158.777L270.988 135L299.536 184.146L272.161 184.114Z" fill="white"/>
<path d="M-44.8719 106.932L-59.2114 82.0957L0.565648 82.1389L-29.0485 30.8456L-1.98494 30.3384L27.3175 81.0918L12.8901 105.979L-16.7285 105.802L-31.3841 131.541L-58.7594 131.508L-44.8719 106.932Z" fill="white"/>
<path d="M349.083 210.945L362.799 234.702L376.428 212.034L362.202 187.532L349.083 210.945Z" fill="white"/>
<path d="M346.301 211.112L360.64 235.949L300.863 235.906L330.477 287.199L303.414 287.706L274.111 236.953L288.539 212.065L318.157 212.243L332.813 186.503L360.188 186.536L346.301 211.112Z" fill="white"/>
<path d="M332.268 237.931L345.987 263L332.487 286.5L304.892 237.898L332.268 237.931Z" fill="white"/>
<path d="M46.0831 106.945L59.7991 130.702L73.4277 108.034L59.2025 83.5323L46.0831 106.945Z" fill="white"/>
<path d="M43.3007 107.112L57.6402 131.949L-2.13693 131.906L27.4773 183.199L0.41365 183.706L-28.8888 132.953L-14.4614 108.065L15.1572 108.243L29.8128 82.5034L57.1882 82.5362L43.3007 107.112Z" fill="white"/>
<path d="M29.2677 133.931L42.9872 159L29.4871 182.5L1.89238 133.898L29.2677 133.931Z" fill="white"/>
<path d="M194.404 106.945L180.688 130.702L167.06 108.034L181.285 83.5323L194.404 106.945Z" fill="white"/>
<path d="M197.187 107.112L182.847 131.949L242.624 131.906L213.01 183.199L240.074 183.706L269.376 132.953L254.949 108.065L225.33 108.243L210.674 82.5034L183.299 82.5362L197.187 107.112Z" fill="white"/>
<path d="M211.22 133.931L197.5 159L211 182.5L238.595 133.898L211.22 133.931Z" fill="white"/>
<path d="M871.311 300.227L851.032 279.948L908.784 264.518L866.903 222.637L892.913 215.143L934.353 256.583L926.859 284.356L898.203 291.851L890.709 320.506L864.258 327.56L871.311 300.227Z" fill="white"/>
<path d="M877.926 270.69L857.647 250.411L865.141 224.401L904.377 263.636L877.926 270.69Z" fill="white"/>
<path d="M551.721 278.193L531.441 257.914L589.193 242.484L547.312 200.603L573.322 193.109L614.762 234.548L610.265 261.54L578.612 269.816L571.118 298.472L544.667 305.525L551.721 278.193Z" fill="white"/>
<path d="M558.333 248.656L538.054 228.377L545.548 202.366L584.784 241.602L558.333 248.656Z" fill="white"/>
<path d="M668.651 247.035L675.751 220.537L694.483 239.756L687.383 266.254L668.651 247.035Z" fill="white"/>
<path d="M665.919 247.594L673.342 219.892L615.613 235.405L630.942 178.195L604.669 184.709L589.501 241.317L609.879 261.623L638.442 253.785L659.26 274.854L685.694 267.738L665.919 247.594Z" fill="white"/>
<path d="M645.425 225.32L652.848 197.618L633.352 178.84L618.991 232.437L645.425 225.32Z" fill="white"/>
<path d="M748.737 252.321L728.458 232.042L786.209 216.612L743.707 174.372L769.741 167.046L812.048 209.027L804.284 236.45L775.629 243.945L768.134 272.6L741.683 279.653L748.737 252.321Z" fill="white"/>
<path d="M755.35 222.784L734.737 202.076L741.505 175.647L781.801 215.73L755.35 222.784Z" fill="white"/>
<path d="M426.499 231.167L407.102 211.77L400.489 237.78L419.886 257.177L426.499 231.167Z" fill="white"/>
<path d="M429.144 230.285L408.865 210.006L466.617 194.577L424.736 152.696L450.746 145.201L492.186 186.641L484.692 214.415L456.036 221.909L448.542 250.565L422.091 257.618L429.144 230.285Z" fill="white"/>
<path d="M435.757 200.748L415.478 180.469L422.972 154.459L462.208 193.695L435.757 200.748Z" fill="white"/>
<path d="M833.951 229.673L854.23 249.952L796.478 265.382L838.359 307.262L812.349 314.757L770.909 273.317L778.404 245.543L807.059 238.049L814.553 209.394L841 202.5L833.951 229.673Z" fill="white"/>
<path d="M517.001 206.757L536.399 226.155L543.696 200.732L523.614 180.747L517.001 206.757Z" fill="white"/>
<path d="M514.357 207.639L534.636 227.919L476.884 243.348L518.765 285.229L492.755 292.724L451.315 251.284L458.809 223.51L487.465 216.016L494.959 187.36L521.41 180.307L514.357 207.639Z" fill="white"/>
<path d="M660.268 168.368L653.168 194.866L634.137 176.498L641.537 149.149L660.268 168.368Z" fill="white"/>
<path d="M663.001 167.809L655.578 195.511L713.307 179.998L697.978 237.208L724.25 230.693L739.419 174.085L719.041 153.78L690.478 161.617L669.66 140.548L643.226 147.665L663.001 167.809Z" fill="white"/>
<path d="M683.495 190.083L676.731 217.848L695.854 237.053L709.929 182.966L683.495 190.083Z" fill="white"/>
<path d="M861.966 287.227L882.245 266.948L824.494 251.518L866.374 209.638L841.001 202.5L798.924 243.583L806.419 271.357L835.074 278.851L842.569 307.506L869.02 314.56L861.966 287.227Z" fill="white"/>
<path d="M855.352 257.69L875.631 237.411L868.136 211.401L828.901 250.637L855.352 257.69Z" fill="white"/>
<path d="M1181.56 265.193L1201.84 244.914L1144.09 229.484L1185.97 187.603L1159.96 180.109L1118.52 221.549L1123.01 248.541L1154.67 256.817L1162.16 285.472L1188.61 292.526L1181.56 265.193Z" fill="white"/>
<path d="M1174.94 235.656L1195.22 215.377L1187.73 189.367L1148.49 228.603L1174.94 235.656Z" fill="white"/>
<path d="M1064.62 234.034L1057.52 207.537L1038.79 226.756L1045.89 253.253L1064.62 234.034Z" fill="white"/>
<path d="M1067.35 234.593L1059.93 206.891L1117.66 222.404L1102.33 165.194L1128.6 171.709L1143.77 228.317L1123.39 248.622L1094.83 240.785L1074.01 261.854L1047.58 254.737L1067.35 234.593Z" fill="white"/>
<path d="M1087.85 212.319L1080.43 184.618L1099.92 165.839L1114.28 219.436L1087.85 212.319Z" fill="white"/>
<path d="M987.186 240.202L1006.58 220.804L1013.2 246.814L993.798 266.212L987.186 240.202Z" fill="white"/>
<path d="M984.541 239.32L1004.82 219.041L947.068 203.611L989.57 161.372L963.536 154.046L921.229 196.026L928.993 223.45L957.649 230.944L965.143 259.599L991.594 266.653L984.541 239.32Z" fill="white"/>
<path d="M977.927 209.783L998.541 189.076L991.772 162.647L951.476 202.729L977.927 209.783Z" fill="white"/>
<path d="M1306.78 218.167L1326.17 198.77L1332.79 224.78L1313.39 244.178L1306.78 218.167Z" fill="white"/>
<path d="M1304.13 217.286L1324.41 197.007L1266.66 181.577L1308.54 139.696L1282.53 132.202L1241.09 173.642L1248.59 201.415L1277.24 208.91L1284.74 237.565L1311.19 244.619L1304.13 217.286Z" fill="white"/>
<path d="M1297.52 187.749L1317.8 167.47L1310.3 141.46L1271.07 180.695L1297.52 187.749Z" fill="white"/>
<path d="M896.681 215.791L877.284 235.189L869.986 209.766L890.068 189.781L896.681 215.791Z" fill="white"/>
<path d="M899.327 216.673L879.048 236.952L936.799 252.382L894.919 294.263L920.929 301.757L962.369 260.317L954.874 232.544L926.219 225.049L918.724 196.394L892.273 189.34L899.327 216.673Z" fill="white"/>
<path d="M1216.27 193.757L1196.88 213.154L1189.58 187.732L1209.66 167.747L1216.27 193.757Z" fill="white"/>
<path d="M1218.92 194.639L1198.64 214.918L1256.39 230.348L1214.51 272.229L1240.52 279.723L1281.96 238.283L1274.47 210.51L1245.81 203.015L1238.32 174.36L1211.87 167.306L1218.92 194.639Z" fill="white"/>
<path d="M1225.53 224.176L1205.79 244.84L1212.75 271.033L1251.98 231.229L1225.53 224.176Z" fill="white"/>
<path d="M1073.01 155.369L1080.11 181.866L1099.14 163.498L1091.74 136.15L1073.01 155.369Z" fill="white"/>
<path d="M1070.27 154.81L1077.7 182.512L1019.97 166.998L1035.3 224.209L1009.02 217.694L993.857 161.086L1014.23 140.781L1042.8 148.618L1063.62 127.549L1090.05 134.666L1070.27 154.81Z" fill="white"/>
<path d="M1049.78 177.083L1056.54 204.849L1037.42 224.054L1023.35 169.966L1049.78 177.083Z" fill="white"/>
<path d="M1458.31 190.469L1458.31 163.037L1481.37 176.753L1481.37 204.185L1458.31 190.469Z" fill="white"/>
<path d="M1455.81 191.716L1455.81 163.037L1404.07 192.963L1404.07 133.734L1380.38 146.827L1380.38 205.432L1405.31 219.771L1430.88 204.808L1456.44 219.771L1480.13 206.055L1455.81 191.716Z" fill="white"/>
<path d="M1430.25 175.506L1430.25 146.827L1406.56 133.734L1406.56 189.222L1430.25 175.506Z" fill="white"/>
<path d="M1377.05 237.204V264.636L1353.91 251.819L1353.98 223.488L1377.05 237.204Z" fill="white"/>
<path d="M1379.55 235.957V264.636L1431.29 234.71V293.938L1454.98 280.846V222.241L1430.05 207.901L1404.48 222.864L1378.92 207.901L1355.23 221.618L1379.55 235.957Z" fill="white"/>
</g>
<defs>
<clipPath id="clip0_2193_6242">
<rect width="1920" height="227" fill="white"/>
</clipPath>
</defs>
</svg>
