<svg width="1920" height="227" viewBox="0 0 1920 227" fill="none" xmlns="http://www.w3.org/2000/svg">
<g clip-path="url(#clip0_2766_538)">
<path d="M1529.36 283.915L1543.7 259.079L1483.92 259.122L1513.53 207.829L1486.47 207.321L1457.17 258.075L1471.6 282.962L1501.21 282.785L1515.87 308.524L1543.25 308.491L1529.36 283.915Z" fill="#F0F0F0"/>
<path d="M1515.33 257.097L1529.67 232.26L1515.7 209.076L1487.95 257.13L1515.33 257.097Z" fill="#F0F0F0"/>
<path d="M1835.14 180.082L1848.86 156.325L1861.98 179.738L1848.26 203.495L1835.14 180.082Z" fill="#F0F0F0"/>
<path d="M1832.36 179.915L1846.7 155.079L1786.92 155.122L1816.53 103.829L1789.47 103.321L1760.17 154.075L1771.5 178.983L1804.21 178.785L1818.87 204.524L1846.25 204.491L1832.36 179.915Z" fill="#F0F0F0"/>
<path d="M1818.33 153.097L1832.67 128.26L1818.7 105.076L1790.95 153.13L1818.33 153.097Z" fill="#F0F0F0"/>
<path d="M1711.34 180.082L1697.63 156.325L1684.51 179.738L1698.22 203.495L1711.34 180.082Z" fill="#F0F0F0"/>
<path d="M1714.13 179.915L1699.79 155.079L1759.57 155.122L1729.95 103.829L1757.02 103.321L1786.32 154.075L1771.89 178.962L1742.27 178.785L1727.62 204.524L1700.24 204.491L1714.13 179.915Z" fill="#F0F0F0"/>
<path d="M1728.16 153.097L1713.82 128.26L1727.79 105.076L1755.53 153.13L1728.16 153.097Z" fill="#F0F0F0"/>
<path d="M1850.13 256.915L1835.79 232.079L1895.57 232.122L1865.95 180.829L1893.02 180.321L1922.32 231.075L1907.89 255.962L1878.27 255.785L1863.62 281.524L1836.24 281.491L1850.13 256.915Z" fill="#F0F0F0"/>
<path d="M1864.16 230.097L1849.82 205.26L1863.79 182.076L1891.53 230.13L1864.16 230.097Z" fill="#F0F0F0"/>
<path d="M1788.43 256.42L1759.75 256.42L1789.68 204.673L1730.45 204.673L1743.54 180.981L1802.15 180.981L1816.49 205.92L1801.53 231.481L1816.49 257.043L1802.77 280.734L1788.43 256.42Z" fill="#F0F0F0"/>
<path d="M1772.22 230.855L1743.54 230.855L1730.45 207.164L1785.94 207.164L1772.22 230.855Z" fill="#F0F0F0"/>
<path d="M1713.65 282.42L1683.65 282.42L1714.96 230.673L1653 230.673L1666.7 206.981L1728 206.981L1741.93 231.981L1727.35 257.481L1743 283.043L1728.65 306.734L1713.65 282.42Z" fill="#F0F0F0"/>
<path d="M1638.14 206.082L1651.86 182.325L1664.98 205.738L1651.26 229.495L1638.14 206.082Z" fill="#F0F0F0"/>
<path d="M1635.36 205.914L1649.7 181.077L1589.92 181.12L1620.04 129.32L1593 128.981L1563 180.481L1577.6 204.961L1607.21 204.783L1621.87 230.522L1649.25 230.49L1635.36 205.914Z" fill="#F0F0F0"/>
<path d="M1621.33 179.093L1635.88 153.756L1622.5 129.98L1593.95 179.126L1621.33 179.093Z" fill="#F0F0F0"/>
<path d="M1938.36 101.915L1952.7 77.0786L1892.92 77.1218L1922.53 25.8285L1895.47 25.3214L1866.17 76.0747L1880.6 100.962L1910.21 100.785L1924.87 126.524L1952.25 126.491L1938.36 101.915Z" fill="#F0F0F0"/>
<path d="M1924.33 75.0971L1938.67 50.2604L1924.7 27.0762L1896.95 75.1299L1924.33 75.0971Z" fill="#F0F0F0"/>
<path d="M1544.4 205.952L1530.69 229.709L1517.06 207.041L1531.28 182.54L1544.4 205.952Z" fill="#F0F0F0"/>
<path d="M1547.19 206.12L1532.85 230.957L1592.62 230.913L1563.01 282.207L1590.07 282.714L1619.38 231.96L1604.95 207.073L1575.33 207.25L1560.67 181.511L1533.3 181.544L1547.19 206.12Z" fill="#F0F0F0"/>
<path d="M1561.22 232.939L1547.5 258.008L1561 281.508L1588.59 232.906L1561.22 232.939Z" fill="#F0F0F0"/>
<path d="M1847.41 101.952L1833.69 125.709L1820.06 103.041L1834.29 78.5396L1847.41 101.952Z" fill="#F0F0F0"/>
<path d="M1850.19 102.12L1835.85 126.957L1895.63 126.913L1866.01 178.207L1893.08 178.714L1922.38 127.96L1907.95 103.073L1878.33 103.25L1863.68 77.5112L1836.3 77.544L1850.19 102.12Z" fill="#F0F0F0"/>
<path d="M1864.22 128.939L1850.5 154.008L1864 177.508L1891.6 128.906L1864.22 128.939Z" fill="#F0F0F0"/>
<path d="M1699.08 101.952L1712.8 125.709L1726.43 103.041L1712.2 78.5396L1699.08 101.952Z" fill="#F0F0F0"/>
<path d="M1696.3 102.12L1710.64 126.957L1650.86 126.913L1680.47 178.207L1653.41 178.714L1624.11 127.96L1638.54 103.073L1668.15 103.25L1682.81 77.5112L1710.19 77.544L1696.3 102.12Z" fill="#F0F0F0"/>
<path d="M1682.27 128.939L1695.99 154.008L1682.49 177.508L1654.89 128.906L1682.27 128.939Z" fill="#F0F0F0"/>
<path d="M364.128 288.911L349.789 264.075L409.566 264.118L379.951 212.825L407.015 212.317L436.318 263.071L421.89 287.958L392.272 287.781L377.616 313.52L350.241 313.487L364.128 288.911Z" fill="#F0F0F0"/>
<path d="M378.159 262.093L363.82 237.256L377.791 214.072L405.535 262.126L378.159 262.093Z" fill="#F0F0F0"/>
<path d="M58.3438 185.078L44.6278 161.322L31.5084 184.734L45.2245 208.491L58.3438 185.078Z" fill="#F0F0F0"/>
<path d="M61.1281 184.911L46.7886 160.075L106.566 160.118L76.9515 108.825L104.015 108.317L133.318 159.071L121.987 183.979L89.2716 183.781L74.616 209.52L47.2406 209.487L61.1281 184.911Z" fill="#F0F0F0"/>
<path d="M75.1593 158.093L60.8198 133.256L74.7908 110.072L102.535 158.126L75.1593 158.093Z" fill="#F0F0F0"/>
<path d="M182.151 185.078L195.867 161.322L208.986 184.734L195.27 208.491L182.151 185.078Z" fill="#F0F0F0"/>
<path d="M179.366 184.911L193.706 160.075L133.929 160.118L163.543 108.825L136.479 108.317L107.177 159.071L121.604 183.958L151.223 183.781L165.878 209.52L193.254 209.487L179.366 184.911Z" fill="#F0F0F0"/>
<path d="M165.335 158.093L179.675 133.256L165.704 110.072L137.96 158.126L165.335 158.093Z" fill="#F0F0F0"/>
<path d="M43.3641 261.911L57.7036 237.075L-2.07352 237.118L27.5407 185.825L0.477064 185.317L-28.8254 236.071L-14.398 260.958L15.2206 260.781L29.8762 286.52L57.2516 286.487L43.3641 261.911Z" fill="#F0F0F0"/>
<path d="M29.3329 235.093L43.6724 210.256L29.7014 187.072L1.95755 235.126L29.3329 235.093Z" fill="#F0F0F0"/>
<path d="M105.056 261.42L133.735 261.42L103.809 209.673L163.037 209.673L149.945 185.981L91.3396 185.981L77.0001 210.92L91.9631 236.481L77.0001 262.043L90.7161 285.734L105.056 261.42Z" fill="#F0F0F0"/>
<path d="M121.266 235.855L149.945 235.855L163.037 212.164L107.549 212.164L121.266 235.855Z" fill="#F0F0F0"/>
<path d="M179.836 287.42L209.836 287.42L178.532 235.673L240.488 235.673L226.793 211.981L165.488 211.981L151.561 236.981L166.14 262.481L150.488 288.043L164.836 311.734L179.836 287.42Z" fill="#F0F0F0"/>
<path d="M255.352 211.082L241.636 187.325L228.516 210.738L242.232 234.495L255.352 211.082Z" fill="#F0F0F0"/>
<path d="M258.135 210.914L243.795 186.077L303.572 186.12L273.451 134.32L300.494 133.981L330.494 185.481L315.897 209.961L286.278 209.783L271.622 235.522L244.247 235.49L258.135 210.914Z" fill="#F0F0F0"/>
<path d="M272.166 184.093L257.614 158.756L270.992 134.98L299.541 184.126L272.166 184.093Z" fill="#F0F0F0"/>
<path d="M-44.8719 106.911L-59.2114 82.0747L0.565709 82.1179L-29.0485 30.8246L-1.98488 30.3174L27.3176 81.0708L12.8902 105.958L-16.7284 105.781L-31.384 131.52L-58.7594 131.487L-44.8719 106.911Z" fill="#F0F0F0"/>
<path d="M349.084 210.948L362.8 234.705L376.428 212.037L362.203 187.536L349.084 210.948Z" fill="#F0F0F0"/>
<path d="M346.302 211.116L360.642 235.953L300.865 235.909L330.479 287.203L303.415 287.71L274.113 236.957L288.54 212.069L318.159 212.246L332.814 186.507L360.19 186.54L346.302 211.116Z" fill="#F0F0F0"/>
<path d="M332.268 237.935L345.988 263.004L332.488 286.504L304.893 237.903L332.268 237.935Z" fill="#F0F0F0"/>
<path d="M46.083 106.948L59.7991 130.705L73.4277 108.037L59.2024 83.5357L46.083 106.948Z" fill="#F0F0F0"/>
<path d="M43.3016 107.116L57.6411 131.953L-2.13602 131.909L27.4782 183.203L0.414565 183.71L-28.8879 132.957L-14.4605 108.069L15.1581 108.246L29.8137 82.5073L57.1891 82.5401L43.3016 107.116Z" fill="#F0F0F0"/>
<path d="M29.2677 133.935L42.9871 159.004L29.487 182.504L1.89232 133.903L29.2677 133.935Z" fill="#F0F0F0"/>
<path d="M194.405 106.948L180.689 130.705L167.06 108.037L181.286 83.5357L194.405 106.948Z" fill="#F0F0F0"/>
<path d="M197.187 107.116L182.847 131.953L242.624 131.909L213.01 183.203L240.074 183.71L269.376 132.957L254.949 108.069L225.33 108.246L210.674 82.5073L183.299 82.5401L197.187 107.116Z" fill="#F0F0F0"/>
<path d="M211.221 133.935L197.501 159.004L211.001 182.504L238.596 133.903L211.221 133.935Z" fill="#F0F0F0"/>
<path d="M871.318 300.2L851.039 279.921L908.79 264.492L866.909 222.611L892.92 215.116L934.359 256.556L926.865 284.33L898.21 291.824L890.715 320.48L864.264 327.533L871.318 300.2Z" fill="#F0F0F0"/>
<path d="M877.932 270.674L857.653 250.395L865.147 224.384L904.383 263.62L877.932 270.674Z" fill="#F0F0F0"/>
<path d="M551.728 278.193L531.449 257.914L589.2 242.484L547.319 200.603L573.33 193.109L614.77 234.548L610.272 261.54L578.62 269.816L571.125 298.472L544.674 305.525L551.728 278.193Z" fill="#F0F0F0"/>
<path d="M558.34 248.658L538.061 228.379L545.556 202.369L584.791 241.604L558.34 248.658Z" fill="#F0F0F0"/>
<path d="M668.657 247.011L675.757 220.514L694.489 239.733L687.389 266.23L668.657 247.011Z" fill="#F0F0F0"/>
<path d="M665.925 247.568L673.348 219.866L615.618 235.379L630.948 178.169L604.675 184.684L589.507 241.292L609.884 261.597L638.448 253.76L659.266 274.829L685.7 267.712L665.925 247.568Z" fill="#F0F0F0"/>
<path d="M645.431 225.297L652.853 197.596L633.358 178.817L618.997 232.414L645.431 225.297Z" fill="#F0F0F0"/>
<path d="M748.743 252.319L728.464 232.04L786.216 216.61L743.714 174.371L769.747 167.045L812.054 209.025L804.29 236.449L775.635 243.943L768.141 272.598L741.69 279.652L748.743 252.319Z" fill="#F0F0F0"/>
<path d="M755.356 222.784L734.743 202.076L741.512 175.647L781.807 215.73L755.356 222.784Z" fill="#F0F0F0"/>
<path d="M426.506 231.168L407.109 211.771L400.496 237.781L419.894 257.178L426.506 231.168Z" fill="#F0F0F0"/>
<path d="M429.152 230.286L408.873 210.007L466.624 194.578L424.743 152.697L450.754 145.202L492.194 186.642L484.699 214.416L456.044 221.91L448.549 250.566L422.098 257.619L429.152 230.286Z" fill="#F0F0F0"/>
<path d="M435.764 200.752L415.485 180.473L422.98 154.463L462.215 193.698L435.764 200.752Z" fill="#F0F0F0"/>
<path d="M833.957 229.67L854.236 249.949L796.484 265.379L838.365 307.26L812.355 314.754L770.915 273.314L778.41 245.541L807.065 238.046L814.559 209.391L841.006 202.498L833.957 229.67Z" fill="#F0F0F0"/>
<path d="M517.009 206.756L536.406 226.153L543.704 200.73L523.622 180.745L517.009 206.756Z" fill="#F0F0F0"/>
<path d="M514.363 207.639L534.642 227.919L476.891 243.348L518.772 285.229L492.761 292.724L451.321 251.284L458.816 223.51L487.471 216.016L494.966 187.36L521.417 180.307L514.363 207.639Z" fill="#F0F0F0"/>
<path d="M660.275 168.366L653.175 194.863L634.144 176.495L641.543 149.147L660.275 168.366Z" fill="#F0F0F0"/>
<path d="M663.007 167.807L655.585 195.509L713.314 179.996L697.984 237.206L724.257 230.691L739.425 174.083L719.048 153.778L690.484 161.615L669.666 140.546L643.232 147.663L663.007 167.807Z" fill="#F0F0F0"/>
<path d="M683.501 190.082L676.738 217.847L695.86 237.053L709.935 182.965L683.501 190.082Z" fill="#F0F0F0"/>
<path d="M861.967 287.2L882.246 266.921L824.495 251.492L866.375 209.611L841.002 202.473L798.925 243.556L806.42 271.33L835.075 278.824L842.569 307.48L869.02 314.533L861.967 287.2Z" fill="#F0F0F0"/>
<path d="M855.353 257.674L875.632 237.395L868.137 211.384L828.902 250.62L855.353 257.674Z" fill="#F0F0F0"/>
<path d="M1181.56 265.169L1201.84 244.89L1144.09 229.46L1185.97 187.58L1159.96 180.085L1118.52 221.525L1123.01 248.517L1154.67 256.793L1162.16 285.448L1188.61 292.502L1181.56 265.169Z" fill="#F0F0F0"/>
<path d="M1174.94 235.642L1195.22 215.363L1187.73 189.353L1148.49 228.589L1174.94 235.642Z" fill="#F0F0F0"/>
<path d="M1064.62 234.035L1057.52 207.537L1038.79 226.756L1045.89 253.254L1064.62 234.035Z" fill="#F0F0F0"/>
<path d="M1067.36 234.592L1059.93 206.89L1117.66 222.403L1102.33 165.193L1128.6 171.707L1143.77 228.315L1123.4 248.621L1094.83 240.784L1074.01 261.853L1047.58 254.736L1067.36 234.592Z" fill="#F0F0F0"/>
<path d="M1087.85 212.321L1080.43 184.619L1099.92 165.841L1114.28 219.438L1087.85 212.321Z" fill="#F0F0F0"/>
<path d="M987.186 240.199L1006.58 220.802L1013.2 246.812L993.799 266.209L987.186 240.199Z" fill="#F0F0F0"/>
<path d="M984.541 239.319L1004.82 219.04L947.069 203.61L989.571 161.371L963.537 154.045L921.23 196.025L928.994 223.449L957.649 230.943L965.144 259.598L991.595 266.652L984.541 239.319Z" fill="#F0F0F0"/>
<path d="M977.928 209.784L998.542 189.076L991.773 162.647L951.477 202.73L977.928 209.784Z" fill="#F0F0F0"/>
<path d="M1306.78 218.141L1326.17 198.743L1332.79 224.753L1313.39 244.151L1306.78 218.141Z" fill="#F0F0F0"/>
<path d="M1304.13 217.259L1324.41 196.98L1266.66 181.55L1308.54 139.669L1282.53 132.175L1241.09 173.615L1248.59 201.388L1277.24 208.883L1284.74 237.538L1311.19 244.592L1304.13 217.259Z" fill="#F0F0F0"/>
<path d="M1297.52 187.732L1317.8 167.453L1310.3 141.443L1271.07 180.679L1297.52 187.732Z" fill="#F0F0F0"/>
<path d="M896.682 215.795L877.285 235.192L869.987 209.77L890.069 189.784L896.682 215.795Z" fill="#F0F0F0"/>
<path d="M899.328 216.675L879.049 236.954L936.8 252.383L894.919 294.264L920.93 301.759L962.369 260.319L954.875 232.545L926.22 225.051L918.725 196.395L892.274 189.342L899.328 216.675Z" fill="#F0F0F0"/>
<path d="M1216.27 193.759L1196.88 213.157L1189.58 187.734L1209.66 167.749L1216.27 193.759Z" fill="#F0F0F0"/>
<path d="M1218.92 194.639L1198.64 214.919L1256.39 230.348L1214.51 272.229L1240.52 279.724L1281.96 238.284L1274.47 210.51L1245.81 203.016L1238.32 174.36L1211.87 167.307L1218.92 194.639Z" fill="#F0F0F0"/>
<path d="M1225.53 224.176L1205.79 244.84L1212.75 271.033L1251.98 231.23L1225.53 224.176Z" fill="#F0F0F0"/>
<path d="M1073.01 155.37L1080.11 181.867L1099.14 163.499L1091.74 136.151L1073.01 155.37Z" fill="#F0F0F0"/>
<path d="M1070.28 154.811L1077.7 182.513L1019.97 166.999L1035.3 224.21L1009.03 217.695L993.858 161.087L1014.23 140.782L1042.8 148.619L1063.62 127.55L1090.05 134.667L1070.28 154.811Z" fill="#F0F0F0"/>
<path d="M1049.78 177.086L1056.55 204.851L1037.42 224.056L1023.35 169.969L1049.78 177.086Z" fill="#F0F0F0"/>
<path d="M1458.31 190.467L1458.31 163.035L1481.37 176.751L1481.37 204.183L1458.31 190.467Z" fill="#F0F0F0"/>
<path d="M1455.81 191.716L1455.81 163.037L1404.07 192.963L1404.07 133.734L1380.38 146.827L1380.38 205.432L1405.31 219.771L1430.88 204.808L1456.44 219.771L1480.13 206.055L1455.81 191.716Z" fill="#F0F0F0"/>
<path d="M1430.25 175.506L1430.25 146.827L1406.56 133.734L1406.56 189.222L1430.25 175.506Z" fill="#F0F0F0"/>
<path d="M1377.05 237.205V264.637L1353.91 251.82L1353.98 223.489L1377.05 237.205Z" fill="#F0F0F0"/>
<path d="M1379.55 235.96V264.639L1431.29 234.713V293.941L1454.98 280.849V222.244L1430.05 207.904L1404.48 222.867L1378.92 207.904L1355.23 221.62L1379.55 235.96Z" fill="#F0F0F0"/>
</g>
<defs>
<clipPath id="clip0_2766_538">
<rect width="1920" height="227" fill="white"/>
</clipPath>
</defs>
</svg>
