<svg width="24" height="17" viewBox="0 0 24 17" fill="none" xmlns="http://www.w3.org/2000/svg">
<path d="M9.6 12L15.828 8.4L9.6 4.8V12ZM23.472 2.604C23.628 3.168 23.736 3.924 23.808 4.884C23.892 5.844 23.928 6.672 23.928 7.392L24 8.4C24 11.028 23.808 12.96 23.472 14.196C23.172 15.276 22.476 15.972 21.396 16.272C20.832 16.428 19.8 16.536 18.216 16.608C16.656 16.692 15.228 16.728 13.908 16.728L12 16.8C6.972 16.8 3.84 16.608 2.604 16.272C1.524 15.972 0.828 15.276 0.528 14.196C0.372 13.632 0.264 12.876 0.192 11.916C0.108 10.956 0.0719999 10.128 0.0719999 9.408L0 8.4C0 5.772 0.192 3.84 0.528 2.604C0.828 1.524 1.524 0.828 2.604 0.528C3.168 0.372 4.2 0.264 5.784 0.192C7.344 0.108 8.772 0.0719999 10.092 0.0719999L12 0C17.028 0 20.16 0.192 21.396 0.528C22.476 0.828 23.172 1.524 23.472 2.604Z" fill="black"/>
</svg>
